<?xml version="1.0" encoding="UTF-8"?>
<svg xmlns="http://www.w3.org/2000/svg" xmlns:xlink="http://www.w3.org/1999/xlink" width="192px" height="192px" viewBox="0 0 192 192" version="1.1">
<g id="surface1">
<path style=" stroke:none;fill-rule:evenodd;fill:rgb(70.980392%,7.058824%,0%);fill-opacity:1;" d="M 50.25 38.273438 C -16.28125 49.671875 -15.027344 146.082031 51.75 153.777344 C 95.214844 158.785156 126.347656 117.933594 111.355469 75.5625 C 102.53125 50.613281 75.28125 33.984375 50.25 38.273438 M 126.375 96.375 L 126.375 153.375 L 190.875 153.375 L 190.875 129.75 L 151.875 129.75 L 151.875 108 L 190.125 108 L 190.125 85.125 L 151.875 85.125 L 151.875 63.75 L 190.875 63.75 L 190.875 39.375 L 126.375 39.375 L 126.375 96.375 M 52.6875 64.300781 C 38.578125 67.605469 30.3125 79.339844 30.230469 96.1875 C 30.023438 138.636719 83.175781 140.714844 86.089844 98.371094 C 87.496094 77.964844 70.097656 60.21875 52.6875 64.300781 "/>
<path style=" stroke:none;fill-rule:evenodd;fill:rgb(70.980392%,7.058824%,0%);fill-opacity:1;" d="M 50.25 38.273438 C -16.28125 49.671875 -15.027344 146.082031 51.75 153.777344 C 95.214844 158.785156 126.347656 117.933594 111.355469 75.5625 C 102.53125 50.613281 75.28125 33.984375 50.25 38.273438 M 126.375 96.375 L 126.375 153.375 L 190.875 153.375 L 190.875 129.75 L 151.875 129.75 L 151.875 108 L 190.125 108 L 190.125 85.125 L 151.875 85.125 L 151.875 63.75 L 190.875 63.75 L 190.875 39.375 L 126.375 39.375 L 126.375 96.375 M 52.6875 64.300781 C 38.578125 67.605469 30.3125 79.339844 30.230469 96.1875 C 30.023438 138.636719 83.175781 140.714844 86.089844 98.371094 C 87.496094 77.964844 70.097656 60.21875 52.6875 64.300781 "/>
</g>
</svg>
