<?xml version="1.0" encoding="UTF-8" standalone="no" ?>
<!DOCTYPE svg PUBLIC "-//W3C//DTD SVG 1.1//EN" "http://www.w3.org/Graphics/SVG/1.1/DTD/svg11.dtd">
<svg xmlns="http://www.w3.org/2000/svg" xmlns:xlink="http://www.w3.org/1999/xlink" version="1.1" width="192" height="192" viewBox="0 0 192 192" xml:space="preserve">
<desc>Created with Fabric.js 5.3.0</desc>
<defs>
</defs>
<g transform="matrix(1 0 0 1 96 96)" id="c3S9kJsnhSC6v3WSIY2Aw"  >
<g style=""   >
		<g transform="matrix(1 0 0 1 -0.0605279634 -0.1026927995)" id="OQie_IfTMFHt_FZ316_o_"  >
<path style="stroke: none; stroke-width: 1; stroke-dasharray: none; stroke-linecap: butt; stroke-dashoffset: 0; stroke-linejoin: miter; stroke-miterlimit: 4; fill: rgb(178,17,0); fill-rule: evenodd; opacity: 1;"  transform=" translate(-95.9394720366, -95.8973072005)" d="M 50.25 38.273438 C -16.28125 49.671875 -15.027344 146.082031 51.75 153.777344 C 95.214844 158.785156 126.347656 117.933594 111.355469 75.5625 C 102.53125 50.613281 75.28125 33.984375 50.25 38.273438 M 126.375 96.375 L 126.375 153.375 L 190.875 153.375 L 190.875 129.75 L 151.875 129.75 L 151.875 108 L 190.125 108 L 190.125 85.125 L 151.875 85.125 L 151.875 63.75 L 190.875 63.75 L 190.875 39.375 L 126.375 39.375 L 126.375 96.375 M 52.6875 64.300781 C 38.578125 67.605469 30.3125 79.339844 30.230469 96.1875 C 30.023438 138.636719 83.175781 140.714844 86.089844 98.371094 C 87.496094 77.964844 70.097656 60.21875 52.6875 64.300781" stroke-linecap="round" />
</g>
		<g transform="matrix(1 0 0 1 -0.0605279634 -0.1026927995)" id="t7VVBHzkMJ-kRDznj-F1e"  >
<path style="stroke: none; stroke-width: 1; stroke-dasharray: none; stroke-linecap: butt; stroke-dashoffset: 0; stroke-linejoin: miter; stroke-miterlimit: 4; fill: rgb(178,17,0); fill-rule: evenodd; opacity: 1;"  transform=" translate(-95.9394720366, -95.8973072005)" d="M 50.25 38.273438 C -16.28125 49.671875 -15.027344 146.082031 51.75 153.777344 C 95.214844 158.785156 126.347656 117.933594 111.355469 75.5625 C 102.53125 50.613281 75.28125 33.984375 50.25 38.273438 M 126.375 96.375 L 126.375 153.375 L 190.875 153.375 L 190.875 129.75 L 151.875 129.75 L 151.875 108 L 190.125 108 L 190.125 85.125 L 151.875 85.125 L 151.875 63.75 L 190.875 63.75 L 190.875 39.375 L 126.375 39.375 L 126.375 96.375 M 52.6875 64.300781 C 38.578125 67.605469 30.3125 79.339844 30.230469 96.1875 C 30.023438 138.636719 83.175781 140.714844 86.089844 98.371094 C 87.496094 77.964844 70.097656 60.21875 52.6875 64.300781" stroke-linecap="round" />
</g>
</g>
</g>
</svg>